<svg height="512" viewBox="0 0 512 512" width="512" xmlns="http://www.w3.org/2000/svg"><path d="M343.62 107.539l-154.633 23.79.04 173.344s-26.939 1.538-32.179 3.164c-22.878 7.107-36.696 28.092-30.862 46.871 5.833 18.777 29.11 28.24 51.988 21.134 18.829-5.849 37.016-21.768 37.982-37.455.017.009.025.011.025.011v-.504c.04-.903.045-1.806 0-2.709V188.683l108.186-14.349-.002 116.563-17.129-.769a51.566 51.566 0 0 0-4.928-.011l-.516-.002.035.027a52.39 52.39 0 0 0-12.704 2.28c-22.879 7.106-36.695 28.091-30.863 46.868 5.834 18.779 29.111 28.24 51.989 21.134 19.034-5.912 32.87-21.442 33.565-37.309l.006-215.576z"/><path d="M256 27.405c30.869 0 60.805 6.041 88.974 17.956 27.219 11.512 51.668 27.998 72.668 48.998 21 21 37.485 45.449 48.998 72.667 11.915 28.169 17.956 58.104 17.956 88.974s-6.041 60.805-17.956 88.974c-11.513 27.219-27.998 51.668-48.998 72.668s-45.449 37.485-72.668 48.998c-28.169 11.915-58.104 17.956-88.974 17.956s-60.804-6.041-88.974-17.956c-27.218-11.513-51.667-27.998-72.667-48.998-21-21-37.486-45.449-48.998-72.668C33.446 316.805 27.405 286.869 27.405 256s6.041-60.804 17.956-88.974c11.512-27.218 27.998-51.667 48.998-72.667 21-21 45.449-37.486 72.667-48.998 28.17-11.915 58.105-17.956 88.974-17.956m0-20C118.705 7.405 7.405 118.705 7.405 256c0 137.296 111.3 248.596 248.595 248.596 137.296 0 248.596-111.3 248.596-248.596 0-137.295-111.3-248.595-248.596-248.595z"/></svg>